<svg width="220" height="45" viewBox="0 0 220 45" fill="none" xmlns="http://www.w3.org/2000/svg">
<path fill-rule="evenodd" clip-rule="evenodd" d="M39.4315 37.1493C36.9857 38.5303 34.1547 39.3193 31.1377 39.3193C21.8782 39.3193 14.3719 31.8876 14.3719 22.72C14.3719 19.7748 15.1467 17.0087 16.5054 14.6106C9.42391 16.4043 3.59635 21.3125 0.589355 27.7794C3.01895 37.541 11.8973 44.7785 22.478 44.7785C29.2358 44.7785 35.2992 41.8261 39.4315 37.1493Z" fill="white"/>
<path fill-rule="evenodd" clip-rule="evenodd" d="M44.7788 19.7339C39.5918 13.111 31.4915 8.85026 22.3894 8.85026C13.2872 8.85026 5.18694 13.111 0 19.7339C1.32245 8.62024 10.8422 0 22.3894 0C33.9366 0 43.4563 8.62024 44.7788 19.7339Z" fill="white"/>
<path fill-rule="evenodd" clip-rule="evenodd" d="M23.0757 34.6958C31.4056 34.6958 38.1582 27.9934 38.1582 19.7256C38.1582 19.6103 38.1569 19.4953 38.1543 19.3806C33.9584 15.8597 28.5341 13.7373 22.6107 13.7373C21.9696 13.7373 21.3343 13.7622 20.7058 13.811C19.1269 15.3477 17.9285 17.268 17.2637 19.4197C18.3816 18.3545 19.8988 17.6999 21.5698 17.6999C25.0069 17.6999 27.7933 20.4696 27.7933 23.8861C27.7933 27.3027 25.0069 30.0723 21.5698 30.0723C20.1898 30.0723 18.9147 29.6259 17.8828 28.8704C18.9932 31.2843 20.8077 33.3122 23.0656 34.6958L23.0757 34.6958Z" fill="white"/>
<path d="M80.0847 33.046H76.9553C76.6882 33.046 76.4973 32.9703 76.3829 32.781L71.1545 26.2317L65.888 18.8496L65.6972 18.8874L65.9643 25.2475V32.516C65.9643 32.8568 65.7735 33.046 65.43 33.046H62.1861C61.8427 33.046 61.6519 32.8568 61.6519 32.516V12.9438C61.6519 12.6031 61.8427 12.4138 62.1861 12.4138H65.1247C65.43 12.4138 65.659 12.4896 65.8498 12.6788L71.5743 19.8717L76.3829 26.6103L76.5737 26.5725L76.3065 20.1746V12.9438C76.3065 12.6031 76.4973 12.4138 76.8408 12.4138H80.0847C80.4282 12.4138 80.619 12.6031 80.619 12.9438V32.516C80.619 32.8568 80.4282 33.046 80.0847 33.046Z" fill="white"/>
<path d="M87.4573 10.1045C85.7782 10.1045 84.2516 8.62811 84.2516 6.96239C84.2516 5.25881 85.74 3.78238 87.4573 3.78238C89.0984 3.78238 90.5867 5.29667 90.5867 6.96239C90.5867 8.62811 89.0984 10.1045 87.4573 10.1045ZM85.74 12.4138H89.0984C89.4418 12.4138 89.6326 12.6031 89.6326 12.9438V32.516C89.6326 32.8568 89.4418 33.046 89.0984 33.046H85.74C85.3965 33.046 85.2057 32.8568 85.2057 32.516V12.9438C85.2057 12.6031 85.3965 12.4138 85.74 12.4138Z" fill="white"/>
<path d="M94.759 6.39453H98.1174C98.4609 6.39453 98.6517 6.58382 98.6517 6.92453V14.1553C100.445 12.6788 102.354 12.111 104.643 12.111C110.864 12.111 115.367 16.351 115.367 22.711C115.367 29.071 110.749 33.3489 104.643 33.3489C102.315 33.3489 100.064 32.7053 98.499 31.191L98.2319 31.2289L97.9266 32.5918C97.8503 32.8946 97.6594 33.046 97.3541 33.046H94.759C94.4156 33.046 94.2247 32.8568 94.2247 32.516V6.92453C94.2247 6.58382 94.4156 6.39453 94.759 6.39453ZM98.6517 18.736V26.6103C100.293 28.3896 102.086 29.1846 104.643 29.1846C108.269 29.1846 110.978 26.686 110.978 22.711C110.978 18.7739 108.269 16.2753 104.643 16.2753C101.934 16.2753 100.293 17.0703 98.6517 18.736Z" fill="white"/>
<path d="M136.75 27.1025L138.582 29.5632C138.773 29.7525 138.734 29.9796 138.544 30.1689C135.796 32.4782 132.552 33.3489 129.499 33.3489C122.973 33.3489 118.432 28.8439 118.432 22.7489C118.432 16.5781 123.087 12.111 129.308 12.111C135.491 12.111 139.841 16.5781 139.841 22.7489V24.2632C139.841 24.6039 139.688 24.7932 139.383 24.7932H123.049C123.774 27.4053 126.141 29.2225 129.499 29.2225C132.094 29.2225 134.155 28.6925 136.139 27.0646C136.33 26.8753 136.559 26.8753 136.75 27.1025ZM129.308 16.2374C126.217 16.2374 123.622 18.0924 123.011 20.7046H135.338C135.033 18.0546 132.323 16.2374 129.308 16.2374Z" fill="white"/>
<path d="M144.177 6.39453H147.536C147.879 6.39453 148.07 6.58382 148.07 6.92453V32.516C148.07 32.8568 147.879 33.046 147.536 33.046H144.177C143.91 33.046 143.643 32.8189 143.643 32.516V6.92453C143.643 6.58382 143.834 6.39453 144.177 6.39453Z" fill="white"/>
<path d="M152.815 12.4138H156.173C156.517 12.4138 156.707 12.6031 156.707 12.9438V24.036C156.707 27.6325 158.196 29.1846 161.402 29.1846C163.539 29.1846 165.752 28.3139 167.126 26.5346V12.9438C167.126 12.6031 167.317 12.4138 167.66 12.4138H171.019C171.362 12.4138 171.553 12.6031 171.553 12.9438V32.516C171.553 32.8568 171.362 33.046 171.019 33.046H168.309C167.966 33.046 167.775 32.8946 167.698 32.5918L167.355 31.0775H167.126C165.332 32.7053 163.233 33.3489 160.944 33.3489C155.753 33.3489 152.281 30.5853 152.281 24.301V12.9438C152.281 12.6031 152.471 12.4138 152.815 12.4138Z" fill="white"/>
<path d="M176.141 32.516V12.9438C176.141 12.6031 176.332 12.4138 176.676 12.4138H179.385C179.729 12.4138 179.92 12.5653 179.996 12.8681L180.339 14.3824H180.568C182.362 12.7546 184.385 12.111 186.522 12.111C191.827 12.111 195.414 15.1017 195.414 21.2724V32.516C195.414 32.8568 195.223 33.046 194.841 33.046H191.483C191.14 33.046 190.987 32.8568 190.987 32.516V21.3103C190.987 17.8274 189.27 16.2753 186.255 16.2753C184.118 16.2753 181.942 17.146 180.568 18.9253V32.516C180.568 32.8568 180.378 33.046 180.034 33.046H176.676C176.332 33.046 176.141 32.8568 176.141 32.516Z" fill="white"/>
<path d="M216.871 12.4138H219.466C219.809 12.4138 220 12.6031 220 12.9438V30.3203C220 36.6425 215.993 40.9961 209.581 40.9961C205.651 40.9961 202.483 39.9739 200.002 37.3996C199.697 37.0968 199.812 36.8318 200.002 36.5668L201.834 34.4089C202.101 34.1061 202.521 34.0303 202.788 34.2953C204.925 36.2639 207.024 36.8696 209.581 36.8696C213.398 36.8696 215.764 34.6739 216.031 31.0396H215.726C214.237 32.516 212.253 33.3489 209.772 33.3489C203.475 33.3489 198.858 29.1468 198.858 22.7489C198.858 16.3889 203.475 12.111 209.772 12.111C212.215 12.111 214.314 12.906 215.726 14.2688L215.993 14.231L216.298 12.906C216.374 12.5653 216.565 12.4138 216.871 12.4138ZM215.573 26.686V18.7739C213.932 16.9946 212.215 16.2374 209.772 16.2374C206.07 16.2374 203.246 18.736 203.246 22.7489C203.246 26.7239 206.07 29.2225 209.772 29.2225C212.176 29.2225 214.085 28.3896 215.573 26.686Z" fill="white"/>
</svg>
